<?xml version="1.0" encoding="UTF-8"?>
<svg id="Layer_2" data-name="Layer 2" xmlns="http://www.w3.org/2000/svg" xmlns:xlink="http://www.w3.org/1999/xlink" viewBox="0 0 107.18 40.61">
  <defs>
    <style>
      .cls-1 {
        fill: url(#linear-gradient);
      }
    </style>
    <linearGradient id="linear-gradient" x1="53.59" y1="0" x2="53.59" y2="40.61" gradientUnits="userSpaceOnUse">
      <stop offset="0" stop-color="#20242c"/>
      <stop offset="1" stop-color="#464c53"/>
    </linearGradient>
  </defs>
  <g id="Layer_1-2" data-name="Layer 1">
    <path class="cls-1" d="M14.31,39.97L0,1.98h10.23l10.72,30.7h-4.39L27.43,1.98h10.02l-14.41,37.99h-8.73ZM49.53,40.61c-2.97,0-5.57-.59-7.82-1.77-2.25-1.18-4.01-2.8-5.28-4.88-1.27-2.07-1.9-4.43-1.9-7.07s.62-5.04,1.85-7.1c1.23-2.05,2.94-3.68,5.12-4.88,2.18-1.2,4.63-1.79,7.34-1.79s4.99.56,7.05,1.69c2.05,1.13,3.66,2.68,4.82,4.66,1.16,1.98,1.74,4.26,1.74,6.83,0,.5-.04,1.03-.11,1.58-.07.55-.18,1.19-.32,1.9l-23.09.11v-6l19.4-.11-4.18,2.57c-.04-1.43-.25-2.63-.64-3.59-.39-.96-.96-1.69-1.71-2.17s-1.7-.72-2.84-.72-2.15.28-3.03.83c-.88.55-1.55,1.36-2.01,2.41-.46,1.05-.7,2.3-.7,3.72,0,1.54.25,2.82.75,3.86.5,1.04,1.21,1.81,2.14,2.33.93.52,2.07.78,3.43.78,1.25,0,2.38-.21,3.38-.62,1-.41,1.89-1.06,2.68-1.96l4.93,4.82c-1.36,1.5-2.96,2.63-4.8,3.4-1.84.77-3.9,1.15-6.19,1.15ZM65.39,39.97V.91h9.38v39.06h-9.38ZM92.55,40.61c-2.79,0-5.29-.61-7.5-1.82-2.22-1.21-3.96-2.87-5.22-4.96-1.27-2.09-1.9-4.42-1.9-6.99s.63-4.99,1.9-7.05c1.27-2.05,3.01-3.68,5.22-4.88,2.21-1.2,4.7-1.79,7.45-1.79s5.38.6,7.58,1.79c2.2,1.2,3.93,2.82,5.2,4.88,1.27,2.05,1.9,4.4,1.9,7.05s-.62,4.9-1.88,6.99c-1.25,2.09-2.98,3.74-5.2,4.96-2.22,1.21-4.73,1.82-7.56,1.82ZM84.67,11.47l-2.68-3.96,8.09-7.5h4.88l8.09,7.5-2.68,3.96-11.52-6.22h7.34l-11.52,6.22ZM92.5,32.26c1.04,0,1.95-.23,2.73-.7.79-.46,1.39-1.1,1.82-1.9s.64-1.74.64-2.81-.22-2.01-.67-2.81c-.45-.8-1.05-1.43-1.82-1.88-.77-.45-1.67-.67-2.71-.67-.96,0-1.83.23-2.6.7-.77.46-1.38,1.1-1.82,1.9-.45.8-.67,1.74-.67,2.81s.22,1.96.67,2.76c.45.8,1.05,1.44,1.82,1.9.77.46,1.63.7,2.6.7Z"/>
  </g>
</svg>